# xmcd
#
# Track frame offsets:
#	150
#	20944
#	42030
#	55553
#	71957
#	88256
#	106632
#	120258
#	136370
#	150786
#	168693
#	185317
#	205389
#	223945
#	245086
#
# Disc length: 3449 seconds
#
# Revision: 1
# Processed by: cddbd v1.5.1PL0 Copyright (c) Steve Scherf et al.
# Submitted via: audiograbber 1.82.02
#
DISCID=d30d770f
DTITLE=Various Artist - Nashville Sound Vol 13
DYEAR=1900
DGENRE=Karaoke
TTITLE0=Toby Keith - Upstairs downtown
TTITLE1=Sammy Kershaw - Southbound
TTITLE2=Mary-Chapin Carpenter - Tender when I want to be
TTITLE3=George Strait - You can't make a heart love somebody
TTITLE4=Wade Hayes - Old enough to know better
TTITLE5=Shania Twain - Whose bed have your boots benn under
TTITLE6=Doug Supernaw - What'll you do about me
TTITLE7=Neal McCoy - For a change
TTITLE8=Tracy Lawrence - As any fool can see
TTITLE9=John Anderson - Bend it till it breaks
TTITLE10=Lori White - That's how you know when your in love
TTITLE11=Little Texas - Amy's back in Austin
TTITLE12=George Ducas - Lipstick promises
TTITLE13=Clay Walker - This woman and this man
TTITLE14=Trisha Yearwood - Thinkin' about you
EXTD=
EXTT0=
EXTT1=
EXTT2=
EXTT3=
EXTT4=
EXTT5=
EXTT6=
EXTT7=
EXTT8=
EXTT9=
EXTT10=
EXTT11=
EXTT12=
EXTT13=
EXTT14=
PLAYORDER=
